<mxfile host="app.diagrams.net" modified="2024-02-25T23:43:24.363Z" agent="Mozilla/5.0 (Windows NT 10.0; Win64; x64) AppleWebKit/537.36 (KHTML, like Gecko) Chrome/122.0.0.0 Safari/537.36" etag="AvL7Sidvjpb27yyfxsDM" version="23.1.6" type="github">
  <diagram name="Page-1" id="e7e014a7-5840-1c2e-5031-d8a46d1fe8dd">
    <mxGraphModel dx="1140" dy="1376" grid="1" gridSize="10" guides="1" tooltips="1" connect="1" arrows="1" fold="1" page="1" pageScale="1" pageWidth="1169" pageHeight="826" background="none" math="0" shadow="0">
      <root>
        <mxCell id="0" />
        <mxCell id="1" parent="0" />
        <mxCell id="ZubxP0jMZ-Sgu1mifD_v-41" value="WEB APPLICATION ARHITECTURE" style="swimlane;whiteSpace=wrap;html=1;" vertex="1" parent="1">
          <mxGeometry x="250" y="80" width="820" height="500" as="geometry" />
        </mxCell>
        <mxCell id="ZubxP0jMZ-Sgu1mifD_v-42" value="FRONTEND" style="swimlane;whiteSpace=wrap;html=1;" vertex="1" parent="ZubxP0jMZ-Sgu1mifD_v-41">
          <mxGeometry x="40" y="80" width="290" height="210" as="geometry" />
        </mxCell>
        <mxCell id="ZubxP0jMZ-Sgu1mifD_v-52" value="CLIENT-SIDE (BROWSER)" style="swimlane;horizontal=0;whiteSpace=wrap;html=1;rotation=-180;" vertex="1" parent="ZubxP0jMZ-Sgu1mifD_v-42">
          <mxGeometry x="10" y="35" width="270" height="145" as="geometry" />
        </mxCell>
        <mxCell id="ZubxP0jMZ-Sgu1mifD_v-57" value="HTML, CSS, JS files" style="rounded=1;whiteSpace=wrap;html=1;" vertex="1" parent="ZubxP0jMZ-Sgu1mifD_v-52">
          <mxGeometry x="70" y="42.5" width="120" height="60" as="geometry" />
        </mxCell>
        <mxCell id="ZubxP0jMZ-Sgu1mifD_v-43" value="BACKEND" style="swimlane;whiteSpace=wrap;html=1;" vertex="1" parent="ZubxP0jMZ-Sgu1mifD_v-41">
          <mxGeometry x="390" y="80" width="390" height="380" as="geometry" />
        </mxCell>
        <mxCell id="ZubxP0jMZ-Sgu1mifD_v-44" value="WEB APPLICATION SERVER(Node.js + Express.js)" style="swimlane;horizontal=0;whiteSpace=wrap;html=1;rotation=-180;" vertex="1" parent="ZubxP0jMZ-Sgu1mifD_v-43">
          <mxGeometry x="10" y="40" width="370" height="320" as="geometry" />
        </mxCell>
        <mxCell id="ZubxP0jMZ-Sgu1mifD_v-45" value="index.html&lt;br&gt;(Home Page - Overall Info)" style="rounded=1;whiteSpace=wrap;html=1;" vertex="1" parent="ZubxP0jMZ-Sgu1mifD_v-44">
          <mxGeometry x="40" y="50" width="120" height="60" as="geometry" />
        </mxCell>
        <mxCell id="ZubxP0jMZ-Sgu1mifD_v-46" value="gisdev.html&lt;br&gt;(GIS Implementations)" style="rounded=1;whiteSpace=wrap;html=1;" vertex="1" parent="ZubxP0jMZ-Sgu1mifD_v-44">
          <mxGeometry x="40" y="140" width="120" height="60" as="geometry" />
        </mxCell>
        <mxCell id="ZubxP0jMZ-Sgu1mifD_v-47" value="bimdev.html&lt;br&gt;(BIM Developments - Ifc Model)" style="rounded=1;whiteSpace=wrap;html=1;" vertex="1" parent="ZubxP0jMZ-Sgu1mifD_v-44">
          <mxGeometry x="200" y="140" width="120" height="60" as="geometry" />
        </mxCell>
        <mxCell id="ZubxP0jMZ-Sgu1mifD_v-48" value="contact.html&lt;br&gt;(Contact Form Page)" style="rounded=1;whiteSpace=wrap;html=1;" vertex="1" parent="ZubxP0jMZ-Sgu1mifD_v-44">
          <mxGeometry x="40" y="220" width="120" height="60" as="geometry" />
        </mxCell>
        <mxCell id="ZubxP0jMZ-Sgu1mifD_v-49" value="form.html&lt;br&gt;(Digital Participation Form Page)" style="rounded=1;whiteSpace=wrap;html=1;" vertex="1" parent="ZubxP0jMZ-Sgu1mifD_v-44">
          <mxGeometry x="200" y="220" width="120" height="60" as="geometry" />
        </mxCell>
        <mxCell id="ZubxP0jMZ-Sgu1mifD_v-50" value="about.html&lt;br&gt;(Brief Info About the Project)" style="rounded=1;whiteSpace=wrap;html=1;" vertex="1" parent="ZubxP0jMZ-Sgu1mifD_v-44">
          <mxGeometry x="200" y="50" width="120" height="60" as="geometry" />
        </mxCell>
        <mxCell id="ZubxP0jMZ-Sgu1mifD_v-63" value="Req" style="text;html=1;align=center;verticalAlign=middle;whiteSpace=wrap;rounded=0;" vertex="1" parent="ZubxP0jMZ-Sgu1mifD_v-41">
          <mxGeometry x="330" y="220" width="60" height="30" as="geometry" />
        </mxCell>
        <mxCell id="ZubxP0jMZ-Sgu1mifD_v-64" value="Res" style="text;html=1;align=center;verticalAlign=middle;whiteSpace=wrap;rounded=0;" vertex="1" parent="ZubxP0jMZ-Sgu1mifD_v-41">
          <mxGeometry x="335" y="170" width="60" height="30" as="geometry" />
        </mxCell>
        <mxCell id="ZubxP0jMZ-Sgu1mifD_v-61" value="" style="endArrow=classic;html=1;rounded=0;" edge="1" parent="1">
          <mxGeometry width="50" height="50" relative="1" as="geometry">
            <mxPoint x="640" y="290" as="sourcePoint" />
            <mxPoint x="580" y="290" as="targetPoint" />
            <Array as="points" />
          </mxGeometry>
        </mxCell>
        <mxCell id="ZubxP0jMZ-Sgu1mifD_v-62" value="" style="endArrow=classic;html=1;rounded=0;" edge="1" parent="1">
          <mxGeometry width="50" height="50" relative="1" as="geometry">
            <mxPoint x="580" y="300" as="sourcePoint" />
            <mxPoint x="640" y="300" as="targetPoint" />
            <Array as="points" />
          </mxGeometry>
        </mxCell>
        <mxCell id="ZubxP0jMZ-Sgu1mifD_v-65" value="" style="endArrow=classic;html=1;rounded=0;" edge="1" parent="1">
          <mxGeometry width="50" height="50" relative="1" as="geometry">
            <mxPoint x="270" y="260" as="sourcePoint" />
            <mxPoint x="170" y="260" as="targetPoint" />
          </mxGeometry>
        </mxCell>
        <mxCell id="ZubxP0jMZ-Sgu1mifD_v-66" value="Users" style="shape=umlActor;verticalLabelPosition=bottom;verticalAlign=top;html=1;outlineConnect=0;" vertex="1" parent="1">
          <mxGeometry x="70" y="230" width="70" height="110" as="geometry" />
        </mxCell>
        <mxCell id="ZubxP0jMZ-Sgu1mifD_v-67" value="" style="endArrow=classic;html=1;rounded=0;" edge="1" parent="1">
          <mxGeometry width="50" height="50" relative="1" as="geometry">
            <mxPoint x="170" y="270" as="sourcePoint" />
            <mxPoint x="270" y="270" as="targetPoint" />
          </mxGeometry>
        </mxCell>
        <mxCell id="ZubxP0jMZ-Sgu1mifD_v-68" value="Display Results" style="text;html=1;align=center;verticalAlign=middle;whiteSpace=wrap;rounded=0;" vertex="1" parent="1">
          <mxGeometry x="190" y="230" width="60" height="30" as="geometry" />
        </mxCell>
        <mxCell id="ZubxP0jMZ-Sgu1mifD_v-69" value="Collect Data" style="text;html=1;align=center;verticalAlign=middle;whiteSpace=wrap;rounded=0;" vertex="1" parent="1">
          <mxGeometry x="190" y="280" width="60" height="30" as="geometry" />
        </mxCell>
      </root>
    </mxGraphModel>
  </diagram>
</mxfile>
